<?xml version="1.0" encoding="UTF-8" standalone="no"?>
<!-- Created with Inkscape (http://www.inkscape.org/) -->

<svg
   width="512"
   height="512"
   viewBox="0 0 135.46666 135.46666"
   version="1.1"
   id="svg1"
   xml:space="preserve"
   sodipodi:docname="Logotipo.svg"
   inkscape:version="1.4.3 (0d15f75042, 2025-12-25)"
   inkscape:export-filename="Logotipo.png"
   inkscape:export-xdpi="75"
   inkscape:export-ydpi="75"
   xmlns:inkscape="http://www.inkscape.org/namespaces/inkscape"
   xmlns:sodipodi="http://sodipodi.sourceforge.net/DTD/sodipodi-0.dtd"
   xmlns="http://www.w3.org/2000/svg"
   xmlns:svg="http://www.w3.org/2000/svg"><sodipodi:namedview
     id="namedview1"
     pagecolor="#505050"
     bordercolor="#eeeeee"
     borderopacity="1"
     inkscape:showpageshadow="0"
     inkscape:pageopacity="0"
     inkscape:pagecheckerboard="0"
     inkscape:deskcolor="#505050"
     inkscape:document-units="mm"
     inkscape:zoom="0.31738281"
     inkscape:cx="836.52923"
     inkscape:cy="214.25231"
     inkscape:window-width="1354"
     inkscape:window-height="722"
     inkscape:window-x="0"
     inkscape:window-y="0"
     inkscape:window-maximized="1"
     inkscape:current-layer="g2" /><defs
     id="defs1" /><g
     inkscape:groupmode="layer"
     id="g2"
     inkscape:label="Logotipo"><text
       xml:space="preserve"
       style="font-style:normal;font-variant:normal;font-weight:normal;font-stretch:normal;font-size:158.75px;font-family:'SF Pro Rounded';-inkscape-font-specification:'SF Pro Rounded, Normal';font-variant-ligatures:normal;font-variant-caps:normal;font-variant-numeric:normal;font-variant-east-asian:normal;writing-mode:lr-tb;direction:ltr;fill:#8a2be2;fill-opacity:1;stroke-width:0.132292"
       x="151.87077"
       y="123.825"
       id="text2"
       inkscape:label="Skellent"><tspan
         sodipodi:role="line"
         id="tspan2"
         style="font-style:normal;font-variant:normal;font-weight:normal;font-stretch:normal;font-size:158.75px;font-family:'SF Pro Rounded';-inkscape-font-specification:'SF Pro Rounded, Normal';font-variant-ligatures:normal;font-variant-caps:normal;font-variant-numeric:normal;font-variant-east-asian:normal;fill:#8a2be2;fill-opacity:1;stroke-width:0.132292"
         x="151.87077"
         y="123.825">Skell's</tspan></text></g><g
     inkscape:groupmode="layer"
     id="layer1"
     inkscape:label="Isotipo"
     transform="translate(-91.199646,-24.684642)"><g
       id="g65"
       inkscape:label="Body"
       style="display:inline"
       transform="matrix(0.26458333,0,0,0.26458333,91.482317,24.870834)"><path
         style="display:inline;opacity:1;fill:#8a2be2;fill-opacity:1;stroke:none;stroke-width:0.5"
         d="m 273.82812,19.347656 c -6.84676,0.704645 -13.49831,2.698718 -19.60351,5.876953 -16.50613,8.592878 -27.49293,25.007539 -29.14453,43.542969 v 9.685547 117.404295 9.68555 c 2.49907,27.63482 25.34552,48.99012 53.08594,49.62109 0,0 2.47051,0.006 2.50976,0.002 14.536,0.67345 25.98323,12.63984 26.01172,27.1914 -5e-4,13.51377 -9.89678,24.98951 -23.26367,26.97656 -1.32811,0.19758 -4.01172,0.29688 -4.01172,0.29688 l -45.70703,0.16211 c 0,0 -3.33394,-0.15413 -4.97461,-0.45899 -11.58382,-2.14867 -20.47861,-11.49244 -22.05469,-23.16796 -0.1629,-1.20932 -0.24447,-2.4282 -0.24414,-3.64844 -2.3e-4,-0.77252 0.0545,-2.24629 0.0535,-2.30894 -0.14197,-1.78825 -0.32788,-3.57393 -0.64527,-5.3395 -4.33877,-24.12015 -24.23093,-42.38579 -48.63281,-44.65625 H 147.09766 80.583984 70.474609 c -26.155618,2.43469 -46.86111,23.16563 -49.263671,49.32422 v 9.97656 27.52149 72.20703 17.10742 c 2.272489,24.33959 14.135905,46.77481 32.972656,62.35547 15.189391,12.56395 34.011754,19.91845 53.695316,20.98047 h 9.91406 107.28711 165.13086 9.85351 c 47.73023,-2.54419 85.67245,-41.01455 87.55664,-88.77539 v -7.29688 -66.57812 -64.44532 -10.33789 c -1.82283,-19.14901 -13.59656,-35.9224 -30.98632,-44.14453 -2.09985,-0.56463 -4.12464,-1.37835 -6.03125,-2.42383 -8.73338,-4.78817 -14.16231,-13.95616 -14.16211,-23.91601 -1.4e-4,-10.09272 5.57328,-19.36045 14.48828,-24.0918 1.68909,-0.89629 3.46775,-1.61247 5.30664,-2.13672 17.87315,-8.31209 29.87158,-25.62017 31.38476,-45.27343 V 101.89258 77.796875 69.423828 C 486.46724,54.429202 479.17395,40.576197 467.46484,31.138672 459.25669,24.522872 449.30729,20.427373 438.82031,19.347656 H 427.65039 284.99805 Z m 139.08204,19.203125 c 17.83712,-1.11e-4 32.29698,14.459758 32.29687,32.296875 1.1e-4,17.837116 -14.45975,32.296984 -32.29687,32.296874 -17.83636,-9.6e-4 -32.29504,-14.460515 -32.29493,-32.296874 -1.1e-4,-17.836359 14.45857,-32.295915 32.29493,-32.296875 z"
         id="path67"
         sodipodi:nodetypes="ccccccccccccccccccccccccccccccccccccccccccccccsccccccccc"
         inkscape:label="Body" /><path
         style="display:inline;opacity:1;fill:#f9f9f9;fill-opacity:1;stroke:none;stroke-width:0.5"
         d="M 412.91016,49.019531 A 21.828468,21.828468 0 0 0 391.08203,70.847656 21.828468,21.828468 0 0 0 412.91016,92.675781 21.828468,21.828468 0 0 0 434.74023,70.847656 21.828468,21.828468 0 0 0 412.91016,49.019531 Z"
         id="path65"
         inkscape:label="Eye" /></g><g
       id="layer3"
       inkscape:label="Tail"
       style="fill:#d500f9;fill-opacity:1"
       transform="matrix(0.26458333,0,0,0.26458333,91.482317,24.870834)"><path
         id="path66"
         style="opacity:1;fill:#8a2be2;fill-opacity:1;stroke-width:0.559483"
         inkscape:transform-center-x="-1.3165512e-06"
         inkscape:transform-center-y="-28.662384"
         d="m 116.11381,21.887504 c -16.04222,0 -36.961163,39.301709 -49.421221,64.113685 L 155.98645,67.655611 C 143.90399,45.486337 128.54466,21.887504 116.11381,21.887504 Z M 164.69891,84.338771 56.22304,106.6266 c -7.477714,14.19884 -19.683817,37.28528 -25.979626,57.00141 L 190.55627,135.42403 c -6.83406,-14.57009 -14.19185,-27.95752 -18.09147,-35.574275 -1.96685,-3.841658 -4.6206,-9.276444 -7.76589,-15.510984 z m 33.74946,69.349749 -172.237774,30.30504 c -0.06499,3.86053 0.497057,7.21394 1.855688,9.86761 9.810962,19.16276 68.425621,16.051 88.047526,16.051 19.62192,0 78.23659,3.11176 88.04754,-16.051 4.30698,-8.41234 0.61526,-23.86293 -5.71298,-40.17265 z"
         inkscape:label="Tail" /></g></g></svg>
